<svg width="116" height="40" viewBox="0 0 116 40" fill="none" xmlns="http://www.w3.org/2000/svg">
<path fill-rule="evenodd" clip-rule="evenodd" d="M11.89 10.9869C11.3888 9.71857 10.893 8.51035 10.4027 7.36226C9.91248 6.21417 9.40846 5.09342 8.89066 4H6.19702C5.67372 5.09342 5.16694 6.2251 4.67668 7.39506C4.18643 8.56502 3.69067 9.77324 3.1894 11.0197C2.68813 12.2881 2.17584 13.6303 1.65254 15.0462C1.12924 16.4622 0.578389 18.0094 0 19.6878H2.93326L3.56948 17.8673C3.78431 17.2549 3.99914 16.6317 4.21397 15.9975H10.7746C10.9839 16.6317 11.2015 17.2495 11.4273 17.8509C11.6532 18.4522 11.8707 19.0646 12.0801 19.6878H15.129C14.5451 18.0149 13.9943 16.4677 13.4765 15.0462C12.9587 13.6248 12.4298 12.2717 11.89 10.9869ZM4.9163 13.6603C5.39554 12.3154 5.8555 11.0689 6.29618 9.92085C6.73685 8.77276 7.12795 7.79962 7.46948 7.00143C7.79999 7.77229 8.18833 8.73723 8.63452 9.89625C9.0807 11.0553 9.54341 12.3072 10.0226 13.6521L4.9163 13.6603ZM24.2841 12.4384H19.8718V7.82149H17.1616V19.6632H19.8718V14.7428H24.2841V19.6632H26.9942V7.82149H24.2841V12.4384ZM38.8429 16.2271C38.3582 15.6476 37.8652 15.1009 37.3639 14.587C36.9054 14.1067 36.4228 13.6496 35.9179 13.2175L37.116 11.9874L38.4629 10.5605L39.7849 9.12539C40.209 8.65522 40.5864 8.22606 40.9169 7.83789H37.7357C37.4989 8.12218 37.2014 8.46661 36.8434 8.87117L35.7114 10.1259L34.5133 11.3806C34.1112 11.8125 33.7366 12.2006 33.3896 12.5451V7.78869H30.6794V19.6632H33.373V14.341C33.8149 14.6773 34.2345 15.0416 34.629 15.4317C35.0641 15.8526 35.491 16.3009 35.9097 16.7766C36.3283 17.2522 36.7277 17.7388 37.1078 18.2363C37.4879 18.7338 37.8211 19.2094 38.1076 19.6632H41.2474C40.9263 19.0989 40.5761 18.5515 40.198 18.0231C39.7849 17.4217 39.3332 16.8258 38.8429 16.2353V16.2271ZM47.7336 7.52627C47.0422 7.52665 46.3575 7.66034 45.7175 7.9199C45.0561 8.1862 44.459 8.58868 43.9658 9.10079C43.4288 9.66531 43.0128 10.3321 42.7429 11.0607C42.4196 11.9376 42.2627 12.8662 42.2802 13.7998C42.2701 14.6331 42.3899 15.463 42.6355 16.2599C42.8591 16.9777 43.2336 17.6402 43.7345 18.2035C44.2537 18.7714 44.8986 19.2121 45.6183 19.491C46.4771 19.819 47.392 19.9778 48.312 19.9584C48.7095 19.9596 49.1068 19.9377 49.5018 19.8928C49.8929 19.8491 50.2565 19.7917 50.5925 19.7206C50.8939 19.66 51.1918 19.5834 51.4849 19.491C51.6974 19.4279 51.9046 19.3483 52.1046 19.2532L51.7493 17.0144C51.3324 17.1818 50.901 17.3109 50.4603 17.3998C49.8683 17.5253 49.2643 17.5858 48.659 17.5802C47.7295 17.6336 46.8133 17.3412 46.0893 16.7602C45.784 16.4763 45.5385 16.1352 45.3669 15.7565C45.1953 15.3779 45.101 14.9692 45.0895 14.5542H52.8234C52.8234 14.4011 52.8234 14.2316 52.8234 14.0458C52.8234 13.8599 52.8234 13.6904 52.8234 13.5373C52.9456 11.9146 52.4634 10.3038 51.4683 9.01058C50.9917 8.50887 50.4108 8.11619 49.7658 7.85986C49.1209 7.60353 48.4274 7.4897 47.7336 7.52627ZM45.1143 12.5779C45.1597 12.231 45.2429 11.8901 45.3622 11.561C45.4756 11.2383 45.6463 10.9383 45.8662 10.6753C46.0943 10.412 46.3759 10.1996 46.6925 10.0521C47.0345 9.88708 47.4113 9.80554 47.7914 9.81425C48.1504 9.80445 48.5068 9.87744 48.8325 10.0275C49.1212 10.1675 49.3751 10.3691 49.5762 10.6179C49.7864 10.8808 49.9435 11.1815 50.0389 11.5036C50.1446 11.852 50.1976 12.214 50.1959 12.5779H45.1143ZM54.5255 10.1177H58.2933V19.6632H61.0035V10.1095H64.7713V7.82149H54.5255V10.1177ZM76.0664 9.232C75.5717 8.68855 74.9623 8.26014 74.2816 7.9773C73.5624 7.67787 72.7893 7.52719 72.0094 7.53447C71.2321 7.52598 70.4614 7.67673 69.7454 7.9773C69.0668 8.26383 68.4582 8.69171 67.9607 9.232C67.4444 9.80161 67.0483 10.468 66.7956 11.192C66.5099 12.0119 66.3701 12.8749 66.3825 13.7423C66.371 14.6124 66.5108 15.478 66.7956 16.3009C67.0469 17.0262 67.44 17.6951 67.9524 18.2691C68.4479 18.808 69.0535 19.2358 69.7289 19.5238C70.4513 19.8324 71.2313 19.9861 72.0177 19.9748C72.8066 19.9848 73.589 19.8312 74.3147 19.5238C74.995 19.2327 75.6038 18.7991 76.0994 18.2527C76.609 17.6794 76.9968 17.01 77.2397 16.2845C77.518 15.4602 77.6549 14.5953 77.6446 13.7259C77.6569 12.8585 77.5171 11.9955 77.2314 11.1755C76.9725 10.4552 76.5739 9.79208 76.0581 9.2238L76.0664 9.232ZM74.1081 16.5716C73.8641 16.8941 73.5478 17.1559 73.1843 17.3362C72.8207 17.5165 72.4199 17.6103 72.0135 17.6103C71.6071 17.6103 71.2063 17.5165 70.8428 17.3362C70.4792 17.1559 70.1629 16.8941 69.9189 16.5716C69.376 15.7299 69.113 14.7403 69.167 13.7423C69.1138 12.7548 69.3771 11.7759 69.9189 10.9459C70.1649 10.6263 70.4819 10.3673 70.8452 10.189C71.2085 10.0107 71.6083 9.91795 72.0135 9.91795C72.4188 9.91795 72.8186 10.0107 73.1819 10.189C73.5452 10.3673 73.8621 10.6263 74.1081 10.9459C74.65 11.7759 74.9132 12.7548 74.86 13.7423C74.9093 14.7384 74.6435 15.7247 74.0999 16.5634L74.1081 16.5716ZM82.66 9.30581C82.66 9.85251 82.66 10.3992 82.66 10.9459C82.66 11.4926 82.627 12.0558 82.5609 12.6353C82.5058 13.182 82.4314 13.7068 82.3378 14.2098C82.2531 14.6698 82.1145 15.1185 81.9246 15.5465C81.7172 16.0545 81.3848 16.5027 80.9579 16.8504C80.4374 17.2348 79.8306 17.4881 79.1897 17.5884L79.5698 19.8764C80.3792 19.8145 81.1683 19.5944 81.8916 19.2286C82.4871 18.9013 83.0144 18.4643 83.445 17.9411C83.8671 17.4528 84.2049 16.8986 84.4448 16.3009C84.6874 15.6558 84.8645 14.9882 84.9736 14.3082C85.0868 13.6077 85.1585 12.9012 85.1884 12.1924C85.216 11.4762 85.238 10.7847 85.2545 10.1177H88.2373V19.6632H90.9475V7.82149H82.6848L82.66 9.30581ZM103.664 9.2402C103.169 8.69675 102.56 8.26834 101.879 7.98551C101.16 7.68607 100.387 7.53539 99.6068 7.54267C98.8295 7.53418 98.0588 7.68494 97.3428 7.98551C96.6642 8.27203 96.0556 8.69992 95.5581 9.2402C95.0418 9.80981 94.6457 10.4762 94.3931 11.2002C94.1072 12.02 93.9674 12.8831 93.9799 13.7505C93.9684 14.6206 94.1082 15.4862 94.3931 16.3091C94.6443 17.0344 95.0374 17.7033 95.5498 18.2773C96.0412 18.8212 96.6441 19.2546 97.318 19.5484C98.0405 19.857 98.8204 20.0107 99.6068 19.9994C100.396 20.0094 101.178 19.8558 101.904 19.5484C102.584 19.2573 103.193 18.8237 103.689 18.2773C104.198 17.704 104.586 17.0346 104.829 16.3091C105.107 15.4848 105.244 14.6199 105.234 13.7505C105.246 12.8831 105.106 12.0201 104.821 11.2002C104.565 10.471 104.166 9.79936 103.647 9.2238L103.664 9.2402ZM101.706 16.5798C101.462 16.9023 101.145 17.1641 100.782 17.3444C100.418 17.5247 100.017 17.6185 99.6109 17.6185C99.2045 17.6185 98.8037 17.5247 98.4402 17.3444C98.0766 17.1641 97.7604 16.9023 97.5163 16.5798C96.9734 15.7381 96.7104 14.7485 96.7644 13.7505C96.7113 12.763 96.9745 11.7841 97.5163 10.9541C97.7624 10.6345 98.0793 10.3755 98.4426 10.1972C98.8059 10.0189 99.2057 9.92615 99.6109 9.92615C100.016 9.92615 100.416 10.0189 100.779 10.1972C101.143 10.3755 101.46 10.6345 101.706 10.9541C102.247 11.7841 102.511 12.763 102.457 13.7505C102.502 14.7447 102.234 15.728 101.689 16.5634L101.706 16.5798ZM108.258 7.83789V19.6632H110.968V10.0849H116V7.82149L108.258 7.83789Z" fill="#34495E"/>
<path d="M5.8 34L3.26 30.55L4.07 30.05L6.94 34H5.8ZM1.09 34V27H2.07V34H1.09ZM1.77 30.92V30.04H4.04V30.92H1.77ZM4.16 30.61L3.24 30.47L5.75 27H6.82L4.16 30.61ZM10.0066 34.06C9.47331 34.06 8.99997 33.9433 8.58664 33.71C8.17331 33.4767 7.84664 33.1567 7.60664 32.75C7.36664 32.3367 7.24664 31.87 7.24664 31.35C7.24664 30.8233 7.36664 30.3567 7.60664 29.95C7.84664 29.5433 8.17331 29.2267 8.58664 29C8.99997 28.7667 9.47331 28.65 10.0066 28.65C10.5333 28.65 11.0033 28.7667 11.4166 29C11.8366 29.2267 12.1633 29.5433 12.3966 29.95C12.6366 30.35 12.7566 30.8167 12.7566 31.35C12.7566 31.8767 12.6366 32.3433 12.3966 32.75C12.1633 33.1567 11.8366 33.4767 11.4166 33.71C11.0033 33.9433 10.5333 34.06 10.0066 34.06ZM10.0066 33.22C10.3466 33.22 10.65 33.1433 10.9166 32.99C11.19 32.8367 11.4033 32.62 11.5566 32.34C11.71 32.0533 11.7866 31.7233 11.7866 31.35C11.7866 30.97 11.71 30.6433 11.5566 30.37C11.4033 30.09 11.19 29.8733 10.9166 29.72C10.65 29.5667 10.3466 29.49 10.0066 29.49C9.66664 29.49 9.36331 29.5667 9.09664 29.72C8.82997 29.8733 8.61664 30.09 8.45664 30.37C8.29664 30.6433 8.21664 30.97 8.21664 31.35C8.21664 31.7233 8.29664 32.0533 8.45664 32.34C8.61664 32.62 8.82997 32.8367 9.09664 32.99C9.36331 33.1433 9.66664 33.22 10.0066 33.22ZM14.1429 34V28.7H15.1029V30.95H18.1229V28.7H19.0829V34H18.1229V31.78H15.1029V34H14.1429ZM23.2595 34.06C22.7195 34.06 22.2362 33.9433 21.8095 33.71C21.3895 33.4767 21.0595 33.1567 20.8195 32.75C20.5795 32.3433 20.4595 31.8767 20.4595 31.35C20.4595 30.8233 20.5795 30.3567 20.8195 29.95C21.0595 29.5433 21.3895 29.2267 21.8095 29C22.2362 28.7667 22.7195 28.65 23.2595 28.65C23.7395 28.65 24.1662 28.7467 24.5395 28.94C24.9195 29.1267 25.2129 29.4067 25.4195 29.78L24.6895 30.25C24.5162 29.99 24.3029 29.8 24.0495 29.68C23.8029 29.5533 23.5362 29.49 23.2495 29.49C22.9029 29.49 22.5929 29.5667 22.3195 29.72C22.0462 29.8733 21.8295 30.09 21.6695 30.37C21.5095 30.6433 21.4295 30.97 21.4295 31.35C21.4295 31.73 21.5095 32.06 21.6695 32.34C21.8295 32.62 22.0462 32.8367 22.3195 32.99C22.5929 33.1433 22.9029 33.22 23.2495 33.22C23.5362 33.22 23.8029 33.16 24.0495 33.04C24.3029 32.9133 24.5162 32.72 24.6895 32.46L25.4195 32.92C25.2129 33.2867 24.9195 33.57 24.5395 33.77C24.1662 33.9633 23.7395 34.06 23.2595 34.06ZM27.6441 34V29.29L27.8841 29.54H25.7041V28.7H30.5441V29.54H28.3741L28.6041 29.29V34H27.6441ZM34.3357 34.06C33.8957 34.06 33.4924 33.96 33.1257 33.76C32.7657 33.5533 32.4757 33.25 32.2557 32.85C32.0424 32.45 31.9357 31.95 31.9357 31.35C31.9357 30.75 32.039 30.25 32.2457 29.85C32.459 29.45 32.7457 29.15 33.1057 28.95C33.4724 28.75 33.8824 28.65 34.3357 28.65C34.8557 28.65 35.3157 28.7633 35.7157 28.99C36.1157 29.2167 36.4324 29.5333 36.6657 29.94C36.899 30.34 37.0157 30.81 37.0157 31.35C37.0157 31.89 36.899 32.3633 36.6657 32.77C36.4324 33.1767 36.1157 33.4933 35.7157 33.72C35.3157 33.9467 34.8557 34.06 34.3357 34.06ZM31.5257 35.94V28.7H32.4457V30.13L32.3857 31.36L32.4857 32.59V35.94H31.5257ZM34.2557 33.22C34.5957 33.22 34.899 33.1433 35.1657 32.99C35.439 32.8367 35.6524 32.62 35.8057 32.34C35.9657 32.0533 36.0457 31.7233 36.0457 31.35C36.0457 30.97 35.9657 30.6433 35.8057 30.37C35.6524 30.09 35.439 29.8733 35.1657 29.72C34.899 29.5667 34.5957 29.49 34.2557 29.49C33.9224 29.49 33.619 29.5667 33.3457 29.72C33.079 29.8733 32.8657 30.09 32.7057 30.37C32.5524 30.6433 32.4757 30.97 32.4757 31.35C32.4757 31.7233 32.5524 32.0533 32.7057 32.34C32.8657 32.62 33.079 32.8367 33.3457 32.99C33.619 33.1433 33.9224 33.22 34.2557 33.22ZM38.534 36C38.2807 36 38.034 35.9567 37.794 35.87C37.554 35.79 37.3473 35.67 37.174 35.51L37.584 34.79C37.7173 34.9167 37.864 35.0133 38.024 35.08C38.184 35.1467 38.354 35.18 38.534 35.18C38.7673 35.18 38.9607 35.12 39.114 35C39.2673 34.88 39.4107 34.6667 39.544 34.36L39.874 33.63L39.974 33.51L42.054 28.7H42.994L40.424 34.53C40.2707 34.9033 40.0973 35.1967 39.904 35.41C39.7173 35.6233 39.5107 35.7733 39.284 35.86C39.0573 35.9533 38.8073 36 38.534 36ZM39.794 34.17L37.374 28.7H38.374L40.434 33.42L39.794 34.17ZM47.8169 34L45.7669 31.42L46.5569 30.94L48.9469 34H47.8169ZM43.9769 34V28.7H44.9369V34H43.9769ZM44.6469 31.76V30.94H46.3969V31.76H44.6469ZM46.6369 31.46L45.7469 31.34L47.7769 28.7H48.8069L46.6369 31.46ZM50.9155 34V29.29L51.1555 29.54H48.9755V28.7H53.8155V29.54H51.6455L51.8755 29.29V34H50.9155ZM56.8328 34.06C56.2995 34.06 55.8261 33.9433 55.4128 33.71C54.9995 33.4767 54.6728 33.1567 54.4328 32.75C54.1928 32.3367 54.0728 31.87 54.0728 31.35C54.0728 30.8233 54.1928 30.3567 54.4328 29.95C54.6728 29.5433 54.9995 29.2267 55.4128 29C55.8261 28.7667 56.2995 28.65 56.8328 28.65C57.3595 28.65 57.8295 28.7667 58.2428 29C58.6628 29.2267 58.9895 29.5433 59.2228 29.95C59.4628 30.35 59.5828 30.8167 59.5828 31.35C59.5828 31.8767 59.4628 32.3433 59.2228 32.75C58.9895 33.1567 58.6628 33.4767 58.2428 33.71C57.8295 33.9433 57.3595 34.06 56.8328 34.06ZM56.8328 33.22C57.1728 33.22 57.4761 33.1433 57.7428 32.99C58.0161 32.8367 58.2295 32.62 58.3828 32.34C58.5361 32.0533 58.6128 31.7233 58.6128 31.35C58.6128 30.97 58.5361 30.6433 58.3828 30.37C58.2295 30.09 58.0161 29.8733 57.7428 29.72C57.4761 29.5667 57.1728 29.49 56.8328 29.49C56.4928 29.49 56.1895 29.5667 55.9228 29.72C55.6561 29.8733 55.4428 30.09 55.2828 30.37C55.1228 30.6433 55.0428 30.97 55.0428 31.35C55.0428 31.7233 55.1228 32.0533 55.2828 32.34C55.4428 32.62 55.6561 32.8367 55.9228 32.99C56.1895 33.1433 56.4928 33.22 56.8328 33.22ZM63.7791 34.06C63.3391 34.06 62.9357 33.96 62.5691 33.76C62.2091 33.5533 61.9191 33.25 61.6991 32.85C61.4857 32.45 61.3791 31.95 61.3791 31.35C61.3791 30.75 61.4824 30.25 61.6891 29.85C61.9024 29.45 62.1891 29.15 62.5491 28.95C62.9157 28.75 63.3257 28.65 63.7791 28.65C64.2991 28.65 64.7591 28.7633 65.1591 28.99C65.5591 29.2167 65.8757 29.5333 66.1091 29.94C66.3424 30.34 66.4591 30.81 66.4591 31.35C66.4591 31.89 66.3424 32.3633 66.1091 32.77C65.8757 33.1767 65.5591 33.4933 65.1591 33.72C64.7591 33.9467 64.2991 34.06 63.7791 34.06ZM60.9691 35.94V28.7H61.8891V30.13L61.8291 31.36L61.9291 32.59V35.94H60.9691ZM63.6991 33.22C64.0391 33.22 64.3424 33.1433 64.6091 32.99C64.8824 32.8367 65.0957 32.62 65.2491 32.34C65.4091 32.0533 65.4891 31.7233 65.4891 31.35C65.4891 30.97 65.4091 30.6433 65.2491 30.37C65.0957 30.09 64.8824 29.8733 64.6091 29.72C64.3424 29.5667 64.0391 29.49 63.6991 29.49C63.3657 29.49 63.0624 29.5667 62.7891 29.72C62.5224 29.8733 62.3091 30.09 62.1491 30.37C61.9957 30.6433 61.9191 30.97 61.9191 31.35C61.9191 31.7233 61.9957 32.0533 62.1491 32.34C62.3091 32.62 62.5224 32.8367 62.7891 32.99C63.0624 33.1433 63.3657 33.22 63.6991 33.22ZM73.7894 34V32.88L73.7394 32.67V30.76C73.7394 30.3533 73.6194 30.04 73.3794 29.82C73.146 29.5933 72.7927 29.48 72.3194 29.48C72.006 29.48 71.6994 29.5333 71.3994 29.64C71.0994 29.74 70.846 29.8767 70.6394 30.05L70.2394 29.33C70.5127 29.11 70.8394 28.9433 71.2194 28.83C71.606 28.71 72.0094 28.65 72.4294 28.65C73.156 28.65 73.716 28.8267 74.1094 29.18C74.5027 29.5333 74.6994 30.0733 74.6994 30.8V34H73.7894ZM72.0494 34.06C71.656 34.06 71.3094 33.9933 71.0094 33.86C70.716 33.7267 70.4894 33.5433 70.3294 33.31C70.1694 33.07 70.0894 32.8 70.0894 32.5C70.0894 32.2133 70.156 31.9533 70.2894 31.72C70.4294 31.4867 70.6527 31.3 70.9594 31.16C71.2727 31.02 71.6927 30.95 72.2194 30.95H73.8994V31.64H72.2594C71.7794 31.64 71.456 31.72 71.2894 31.88C71.1227 32.04 71.0394 32.2333 71.0394 32.46C71.0394 32.72 71.1427 32.93 71.3494 33.09C71.556 33.2433 71.8427 33.32 72.2094 33.32C72.5694 33.32 72.8827 33.24 73.1494 33.08C73.4227 32.92 73.6194 32.6867 73.7394 32.38L73.9294 33.04C73.8027 33.3533 73.5794 33.6033 73.2594 33.79C72.9394 33.97 72.536 34.06 72.0494 34.06ZM76.428 34V28.7H77.388V30.95H80.408V28.7H81.368V34H80.408V31.78H77.388V34H76.428ZM87.0747 34L85.0247 31.42L85.8147 30.94L88.2047 34H87.0747ZM83.2347 34V28.7H84.1947V34H83.2347ZM83.9047 31.76V30.94H85.6547V31.76H83.9047ZM85.8947 31.46L85.0047 31.34L87.0347 28.7H88.0647L85.8947 31.46ZM91.3955 34.06C90.8288 34.06 90.3288 33.9433 89.8955 33.71C89.4688 33.4767 89.1355 33.1567 88.8955 32.75C88.6621 32.3433 88.5455 31.8767 88.5455 31.35C88.5455 30.8233 88.6588 30.3567 88.8855 29.95C89.1188 29.5433 89.4355 29.2267 89.8355 29C90.2421 28.7667 90.6988 28.65 91.2055 28.65C91.7188 28.65 92.1721 28.7633 92.5655 28.99C92.9588 29.2167 93.2655 29.5367 93.4855 29.95C93.7121 30.3567 93.8255 30.8333 93.8255 31.38C93.8255 31.42 93.8221 31.4667 93.8155 31.52C93.8155 31.5733 93.8121 31.6233 93.8055 31.67H89.2955V30.98H93.3055L92.9155 31.22C92.9221 30.88 92.8521 30.5767 92.7055 30.31C92.5588 30.0433 92.3555 29.8367 92.0955 29.69C91.8421 29.5367 91.5455 29.46 91.2055 29.46C90.8721 29.46 90.5755 29.5367 90.3155 29.69C90.0555 29.8367 89.8521 30.0467 89.7055 30.32C89.5588 30.5867 89.4855 30.8933 89.4855 31.24V31.4C89.4855 31.7533 89.5655 32.07 89.7255 32.35C89.8921 32.6233 90.1221 32.8367 90.4155 32.99C90.7088 33.1433 91.0455 33.22 91.4255 33.22C91.7388 33.22 92.0221 33.1667 92.2755 33.06C92.5355 32.9533 92.7621 32.7933 92.9555 32.58L93.4855 33.2C93.2455 33.48 92.9455 33.6933 92.5855 33.84C92.2321 33.9867 91.8355 34.06 91.3955 34.06ZM96.1402 34V29.29L96.3802 29.54H94.2002V28.7H99.0402V29.54H96.8702L97.1002 29.29V34H96.1402Z" fill="#333333"/>
</svg>
