<svg width="96" height="96" viewBox="0 0 96 96" fill="none" xmlns="http://www.w3.org/2000/svg">
<g filter="url(#filter0_d_3754_7)">
<circle cx="48" cy="44" r="32" fill="white"/>
</g>
<g clip-path="url(#clip0_3754_7)">
<path d="M48.1854 37.038C47.9984 36.9607 47.7832 37.0037 47.6404 37.147L38.6404 46.147C38.4485 46.3456 38.454 46.6622 38.6526 46.854C38.8464 47.0411 39.1536 47.0411 39.3473 46.854L47.4943 38.707L47.4943 60.5C47.4944 60.7761 47.7183 61 47.9944 61C48.2705 61 48.4944 60.7761 48.4944 60.5L48.4944 38.707L56.6404 46.853C56.8323 47.0516 57.1488 47.0571 57.3474 46.8653C57.546 46.6734 57.5515 46.3569 57.3597 46.1582C57.3557 46.1541 57.3516 46.15 57.3474 46.146L48.3474 37.146C48.301 37.0998 48.2459 37.063 48.1854 37.038Z" fill="#2196F3"/>
<path d="M57.4943 46.5001C57.4948 46.7762 57.2713 47.0005 56.9952 47.001C56.8621 47.0012 56.7343 46.9483 56.6403 46.8541L47.9943 38.207L39.3483 46.8541C39.1497 47.0459 38.8332 47.0404 38.6413 46.8418C38.4542 46.648 38.4542 46.3408 38.6413 46.1471L47.6413 37.1471C47.8366 36.9519 48.1531 36.9519 48.3483 37.1471L57.3483 46.1471C57.4418 46.2408 57.4943 46.3677 57.4943 46.5001Z" fill="#BDBDBD"/>
<path d="M48.4944 37.5L48.4944 60.5C48.4944 60.7761 48.2705 61 47.9944 61C47.7183 61 47.4944 60.7761 47.4944 60.5L47.4944 37.5C47.4944 37.2238 47.7183 37 47.9944 37C48.2705 37 48.4944 37.2239 48.4944 37.5Z" fill="#BDBDBD"/>
</g>
<rect x="40" y="27" width="16" height="2" rx="1" fill="#EB5757"/>
<defs>
<filter id="filter0_d_3754_7" x="0" y="0" width="96" height="96" filterUnits="userSpaceOnUse" color-interpolation-filters="sRGB">
<feFlood flood-opacity="0" result="BackgroundImageFix"/>
<feColorMatrix in="SourceAlpha" type="matrix" values="0 0 0 0 0 0 0 0 0 0 0 0 0 0 0 0 0 0 127 0" result="hardAlpha"/>
<feOffset dy="4"/>
<feGaussianBlur stdDeviation="8"/>
<feColorMatrix type="matrix" values="0 0 0 0 0 0 0 0 0 0 0 0 0 0 0 0 0 0 0.1 0"/>
<feBlend mode="normal" in2="BackgroundImageFix" result="effect1_dropShadow_3754_7"/>
<feBlend mode="normal" in="SourceGraphic" in2="effect1_dropShadow_3754_7" result="shape"/>
</filter>
<clipPath id="clip0_3754_7">
<rect width="24" height="24" fill="white" transform="translate(36 61) rotate(-90)"/>
</clipPath>
</defs>
</svg>
